<svg width="15" height="15" viewBox="0 0 15 15" fill="none" xmlns="http://www.w3.org/2000/svg">
<g clip-path="url(#clip0_154_1798)">
<path d="M14.625 6.49499C14.6246 6.49465 14.6242 6.49419 14.6239 6.49385L8.50505 0.375253C8.24424 0.114327 7.89748 -0.0292969 7.52864 -0.0292969C7.1598 -0.0292969 6.81304 0.114327 6.55211 0.375253L0.436494 6.49076C0.434434 6.49282 0.43226 6.49499 0.430314 6.49705C-0.105271 7.03573 -0.104355 7.90971 0.432946 8.44702C0.678422 8.69261 1.00252 8.83474 1.34916 8.84973C1.36335 8.85111 1.37754 8.85179 1.39185 8.85179H1.63561V13.3546C1.63561 14.2457 2.36071 14.9707 3.25186 14.9707H5.64574C5.88847 14.9707 6.08519 14.7739 6.08519 14.5313V11.001C6.08519 10.5944 6.41604 10.2637 6.82265 10.2637H8.23463C8.64124 10.2637 8.97197 10.5944 8.97197 11.001V14.5313C8.97197 14.7739 9.1687 14.9707 9.41143 14.9707H11.8053C12.6966 14.9707 13.4216 14.2457 13.4216 13.3546V8.85179H13.6477C14.0164 8.85179 14.3632 8.70817 14.6242 8.44713C15.1621 7.90903 15.1623 7.03344 14.625 6.49499ZM14.0027 7.82572C13.9078 7.92059 13.7817 7.97289 13.6477 7.97289H12.9821C12.7394 7.97289 12.5426 8.16961 12.5426 8.41234V13.3546C12.5426 13.7611 12.2119 14.0918 11.8053 14.0918H9.85088V11.001C9.85088 10.1098 9.12589 9.38475 8.23463 9.38475H6.82265C5.93138 9.38475 5.20629 10.1098 5.20629 11.001V14.0918H3.25186C2.84537 14.0918 2.51452 13.7611 2.51452 13.3546V8.41234C2.51452 8.16961 2.31779 7.97289 2.07506 7.97289H1.42092C1.41405 7.97243 1.4073 7.97208 1.40032 7.97197C1.2694 7.96968 1.1466 7.91773 1.05459 7.8256C0.858896 7.62991 0.858896 7.31142 1.05459 7.11561C1.0547 7.11561 1.0547 7.11549 1.05482 7.11538L1.05516 7.11504L7.17376 0.996668C7.26852 0.901796 7.39451 0.849611 7.52864 0.849611C7.66265 0.849611 7.78865 0.901796 7.88352 0.996668L14.0007 7.11378C14.0017 7.11469 14.0027 7.11561 14.0036 7.11652C14.1983 7.31256 14.1979 7.63036 14.0027 7.82572Z" fill="#E12E45"/>
</g>
<defs>
<clipPath id="clip0_154_1798">
<rect width="15" height="15" fill="white"/>
</clipPath>
</defs>
</svg>
