<svg width="15" height="15" viewBox="0 0 15 15" fill="none" xmlns="http://www.w3.org/2000/svg">
<path d="M8.90625 2.8125H3.28125C3.0225 2.8125 2.8125 3.0225 2.8125 3.28125C2.8125 3.54 3.0225 3.75 3.28125 3.75H8.90625C9.165 3.75 9.375 3.54 9.375 3.28125C9.375 3.0225 9.165 2.8125 8.90625 2.8125Z" fill="#E12E45"/>
<path d="M7.03125 4.6875H3.28125C3.0225 4.6875 2.8125 4.8975 2.8125 5.15625C2.8125 5.415 3.0225 5.625 3.28125 5.625H7.03125C7.29 5.625 7.5 5.415 7.5 5.15625C7.5 4.8975 7.29 4.6875 7.03125 4.6875Z" fill="#E12E45"/>
<path d="M10.3125 0H1.875C0.840937 0 0 0.840937 0 1.875V11.25C0 11.4319 0.105 11.5978 0.27 11.6747C0.332812 11.7037 0.40125 11.7188 0.46875 11.7188C0.576563 11.7188 0.683437 11.6812 0.76875 11.61L3.45094 9.375H10.3125C11.3466 9.375 12.1875 8.53406 12.1875 7.5V1.875C12.1875 0.840937 11.3466 0 10.3125 0ZM11.25 7.5C11.25 8.01656 10.83 8.4375 10.3125 8.4375H3.28125C3.17156 8.4375 3.06562 8.47594 2.98125 8.54625L0.9375 10.2497V1.875C0.9375 1.35844 1.3575 0.9375 1.875 0.9375H10.3125C10.83 0.9375 11.25 1.35844 11.25 1.875V7.5Z" fill="#E12E45"/>
<path d="M13.125 3.75C12.8663 3.75 12.6562 3.96 12.6562 4.21875C12.6562 4.4775 12.8663 4.6875 13.125 4.6875C13.6425 4.6875 14.0625 5.10844 14.0625 5.625V13.5553L12.48 12.2897C12.3975 12.2241 12.2934 12.1875 12.1875 12.1875H5.625C5.1075 12.1875 4.6875 11.7666 4.6875 11.25V10.7812C4.6875 10.5225 4.4775 10.3125 4.21875 10.3125C3.96 10.3125 3.75 10.5225 3.75 10.7812V11.25C3.75 12.2841 4.59094 13.125 5.625 13.125H12.0225L14.2378 14.8978C14.3231 14.9653 14.4272 15 14.5312 15C14.5997 15 14.6691 14.985 14.7347 14.9541C14.8969 14.8753 15 14.7113 15 14.5312V5.625C15 4.59094 14.1591 3.75 13.125 3.75Z" fill="#E12E45"/>
</svg>
