<svg width="100" height="41" viewBox="0 0 100 41" fill="none" xmlns="http://www.w3.org/2000/svg">
<path fill-rule="evenodd" clip-rule="evenodd" d="M77.4698 -8.90033e-06L68.6019 20.5304H71.493L71.4951 20.5254H80.9321L79.9313 18.0781H72.5193L77.4391 6.32255L83.1409 20.5304H86.5046L77.6366 -8.90033e-06H77.4698ZM99.7021 26.5032H1.26172V29.0273H99.7021V26.5032Z" fill="#EB2941"/>
<path fill-rule="evenodd" clip-rule="evenodd" d="M8.86796 0L0 20.5304H2.89112L4.96234 15.5813H12.5529L14.539 20.5304H17.9027L9.03475 0H8.86796ZM11.5707 13.134L8.83722 6.32256L5.98657 13.134H11.5707ZM27.9993 1.54998C26.9058 1.06051 25.6549 0.815778 24.2464 0.815778H18.7699V20.5304H21.661V13.4331H24.6356C24.8106 13.4331 24.9818 13.4297 25.1491 13.4229L29.8062 20.5304H33.1977L28.2022 12.7327C28.9322 12.3752 29.5225 11.9289 29.973 11.3937C30.5105 10.7773 30.8997 10.0884 31.1406 9.32705C31.3815 8.56566 31.502 7.79521 31.502 7.01569C31.502 5.67419 31.1869 4.55023 30.5568 3.64381C29.9452 2.71926 29.0927 2.02132 27.9993 1.54998ZM26.9707 10.1156C26.4147 10.4963 25.6178 10.6867 24.58 10.6867H21.661V3.56223H24.7468C25.451 3.56223 26.0441 3.68006 26.5259 3.91573C27.0078 4.13327 27.3877 4.43239 27.6657 4.81309C27.9622 5.17565 28.1753 5.56541 28.3051 5.98237C28.4348 6.38119 28.4997 6.76189 28.4997 7.12446C28.4997 7.61392 28.3885 8.13965 28.1661 8.70163C27.9437 9.24548 27.5452 9.71681 26.9707 10.1156ZM39.9269 0.815778C41.3354 0.815778 42.5863 1.06051 43.6798 1.54998C44.7732 2.02132 45.6257 2.71926 46.2373 3.64381C46.8674 4.55023 47.1825 5.67419 47.1825 7.01569C47.1825 7.79521 47.062 8.56566 46.8211 9.32705C46.5802 10.0884 46.191 10.7773 45.6535 11.3937C45.203 11.9289 44.6127 12.3752 43.8827 12.7327L48.8782 20.5304H45.4867L40.8297 13.4229C40.6623 13.4297 40.4911 13.4331 40.3161 13.4331H37.3416V20.5304H34.4504V0.815778H39.9269ZM40.2605 10.6867C41.2983 10.6867 42.0952 10.4963 42.6512 10.1156C43.2257 9.71681 43.6242 9.24548 43.8466 8.70163C44.069 8.13965 44.1802 7.61392 44.1802 7.12446C44.1802 6.76189 44.1153 6.38119 43.9856 5.98237C43.8558 5.56541 43.6427 5.17565 43.3462 4.81309C43.0682 4.43239 42.6883 4.13327 42.2064 3.91573C41.7246 3.68006 41.1315 3.56223 40.4273 3.56223H37.3416V10.6867H40.2605ZM53.0221 0.815778H50.1309V20.5304H53.0221V0.815778ZM57.6526 0.815778L63.2673 14.5345L68.6333 0.815778H72.0804L63.129 21.4549L54.1777 0.815778H57.6526ZM99.3132 0.815778H87.3722V20.5304H99.7024V17.7839H90.2633V11.9919H98.2012V9.24548H90.2633V3.56223H99.3132V0.815778ZM89.0702 38.9426C89.3211 38.449 89.4466 37.8592 89.4466 37.1732C89.4466 36.4872 89.3211 35.8985 89.0702 35.407C88.8192 34.9134 88.4751 34.5348 88.038 34.2713C87.603 34.0057 87.1084 33.8729 86.5541 33.8729C85.9978 33.8729 85.5011 34.0057 85.0639 34.2713C84.6289 34.5348 84.2859 34.9134 84.0349 35.407C83.784 35.8985 83.6585 36.4872 83.6585 37.1732C83.6585 37.8572 83.784 38.4459 84.0349 38.9395C84.2859 39.4331 84.6289 39.8127 85.0639 40.0783C85.5011 40.3418 85.9978 40.4736 86.5541 40.4736C87.1084 40.4736 87.603 40.3418 88.038 40.0783C88.4751 39.8127 88.8192 39.4341 89.0702 38.9426ZM88.2325 35.8525C88.4019 36.2101 88.4866 36.6504 88.4866 37.1732C88.4866 37.6961 88.4019 38.1374 88.2325 38.4971C88.0652 38.8548 87.8351 39.1267 87.5423 39.3128C87.2516 39.4969 86.9222 39.5889 86.5541 39.5889C86.1839 39.5889 85.8535 39.4969 85.5628 39.3128C85.272 39.1267 85.042 38.8548 84.8726 38.4971C84.7053 38.1374 84.6216 37.6961 84.6216 37.1732C84.6216 36.6504 84.7053 36.2101 84.8726 35.8525C85.042 35.4927 85.272 35.2208 85.5628 35.0368C85.8535 34.8507 86.1839 34.7576 86.5541 34.7576C86.9222 34.7576 87.2516 34.8507 87.5423 35.0368C87.8351 35.2208 88.0652 35.4927 88.2325 35.8525ZM74.5106 33.9607H73.4094L75.7404 37.8634V40.3857H76.7066V37.8634L79.0376 33.9607H77.9364L76.258 36.8815H76.189L74.5106 33.9607ZM99.0275 33.9607H100V38.1866C100 38.6362 99.8944 39.0346 99.6831 39.3818C99.4719 39.7269 99.1749 39.9988 98.7922 40.1975C98.4094 40.3941 97.9608 40.4924 97.4463 40.4924C96.9339 40.4924 96.4863 40.3941 96.1036 40.1975C95.7208 39.9988 95.4238 39.7269 95.2126 39.3818C95.0014 39.0346 94.8957 38.6362 94.8957 38.1866V33.9607H95.8651V38.1081C95.8651 38.3988 95.9289 38.6571 96.0565 38.883C96.1862 39.1089 96.3692 39.2867 96.6055 39.4163C96.8419 39.5439 97.1221 39.6077 97.4463 39.6077C97.7726 39.6077 98.0539 39.5439 98.2902 39.4163C98.5286 39.2867 98.7106 39.1089 98.8361 38.883C98.9637 38.6571 99.0275 38.3988 99.0275 38.1081V33.9607ZM1.88235 33.9607H0.705895V40.3857H1.62823V35.7332H1.68784L3.58272 40.3763H4.3482L6.24307 35.7364H6.30268V40.3857H7.22502V33.9607H6.04857L4.0031 38.9552H3.92781L1.88235 33.9607ZM12.3886 40.3857H13.4177L14.0061 38.6854H16.5165L17.1039 40.3857H18.1329L15.8208 33.9607H14.7008L12.3886 40.3857ZM16.2347 37.8697L15.2874 35.1278H15.2372L14.2884 37.8697H16.2347ZM25.3812 40.3857H23.3012V33.9607H25.4471C26.0766 33.9607 26.6173 34.0893 27.069 34.3466C27.5208 34.6018 27.8669 34.9688 28.1074 35.4478C28.35 35.9246 28.4713 36.4966 28.4713 37.1638C28.4713 37.8331 28.349 38.4082 28.1043 38.8893C27.8617 39.3703 27.5103 39.7405 27.0502 39.9999C26.5901 40.2571 26.0337 40.3857 25.3812 40.3857ZM24.2706 39.5387H25.3279C25.8173 39.5387 26.2241 39.4467 26.5482 39.2626C26.8724 39.0765 27.115 38.8077 27.2761 38.4563C27.4371 38.1029 27.5176 37.672 27.5176 37.1638C27.5176 36.6598 27.4371 36.2321 27.2761 35.8807C27.1171 35.5293 26.8797 35.2627 26.5639 35.0807C26.2481 34.8988 25.856 34.8078 25.3875 34.8078H24.2706V39.5387ZM33.9173 33.9607V40.3857H37.9832V39.5512H34.8867V37.5842H37.7353V36.7528H34.8867V34.7952H37.9455V33.9607H33.9173ZM49.4013 33.9607L48.3346 40.3857H50.6562C51.1623 40.3857 51.5858 40.3104 51.9268 40.1599C52.2677 40.0093 52.5333 39.8054 52.7236 39.5481C52.9139 39.2908 53.0363 39.0012 53.0907 38.6791C53.145 38.3403 53.1241 38.0537 53.0279 37.8195C52.9317 37.5853 52.7947 37.4054 52.6169 37.2799C52.4392 37.1544 52.2541 37.0854 52.0617 37.0728L52.0742 37.0101C52.2624 36.9599 52.4433 36.8825 52.6169 36.7779C52.7926 36.6734 52.9432 36.5311 53.0687 36.3513C53.1963 36.1714 53.2831 35.9434 53.3291 35.6674C53.3835 35.3536 53.3615 35.0682 53.2632 34.8109C53.1649 34.5516 52.9829 34.3456 52.7173 34.1929C52.4517 34.0381 52.0951 33.9607 51.6475 33.9607H49.4013ZM50.7691 39.6955H49.2256L49.6021 37.4619H51.1832C51.4635 37.4619 51.6956 37.5183 51.8797 37.6313C52.0658 37.7421 52.1986 37.8906 52.2781 38.0767C52.3597 38.2608 52.3837 38.4616 52.3503 38.6791C52.3001 38.9614 52.1505 39.202 51.9017 39.4007C51.6549 39.5972 51.2773 39.6955 50.7691 39.6955ZM51.1581 36.7842H49.715L50.0664 34.6509H51.5346C51.9613 34.6509 52.2562 34.7503 52.4193 34.9489C52.5824 35.1455 52.6389 35.385 52.5887 35.6674C52.5552 35.8932 52.4695 36.0898 52.3315 36.2572C52.1934 36.4245 52.0219 36.5542 51.8169 36.6462C51.612 36.7382 51.3924 36.7842 51.1581 36.7842ZM59.7264 33.9607H58.8355L60.5296 37.7379L60.0903 40.3857H60.8684L61.3076 37.7379L64.2566 33.9607H63.3656L61.0942 36.9599H61.019L59.7264 33.9607Z" fill="white"/>
</svg>
