<?xml version="1.0" encoding="UTF-8"?>
<!DOCTYPE svg PUBLIC "-//W3C//DTD SVG 1.1//EN" "http://www.w3.org/Graphics/SVG/1.1/DTD/svg11.dtd">
<!-- Creator: CorelDRAW 2021 (64-Bit) -->
<svg xmlns="http://www.w3.org/2000/svg" xml:space="preserve" width="144.194mm" height="58.6537mm" version="1.1" style="shape-rendering:geometricPrecision; text-rendering:geometricPrecision; image-rendering:optimizeQuality; fill-rule:evenodd; clip-rule:evenodd"
viewBox="0 0 6800.86 2766.39"
 xmlns:xlink="http://www.w3.org/1999/xlink"
 xmlns:xodm="http://www.corel.com/coreldraw/odm/2003">
 <defs>
  <style type="text/css">
   <![CDATA[
    .fil0 {fill:#FEFEFE}
    .fil1 {fill:#F0801E}
    .fil2 {fill:#FEFEFE;fill-rule:nonzero}
   ]]>
  </style>
 </defs>
 <g id="Layer_x0020_1">
  <metadata id="CorelCorpID_0Corel-Layer"/>
  <g id="_1970718394912">
   <polygon class="fil0" points="4386.92,1084.24 4797.51,39.51 4953.18,39.67 4385.57,1476.34 3820.7,39.43 3976.46,39.77 4386.92,1084.24 "/>
   <polygon class="fil1" points="6800.84,1958.88 -0,1958.88 -0,1818.31 6800.84,1818.31 "/>
   <polygon class="fil0" points="6162.72,181.1 6162.72,638.89 6764.54,640.07 6764.54,774.31 6162.72,773.05 6162.72,1307.72 6793.54,1308.92 6793.54,1435.96 6021.59,1435.96 6021.59,43.79 6800.84,43.79 6800.84,182.24 6162.72,181.1 "/>
   <polygon class="fil0" points="3524.44,42.8 3664.48,42.8 3664.48,1436.72 3524.44,1436.72 "/>
   <path class="fil0" d="M556.2 0l-556.2 1436.93 157.95 -0.26 179.13 -468.32 446.79 0 184.09 468.58 155.69 -0.26 -567.45 -1436.67 0 0zm-166.09 829.9l167.35 -437.63 171.98 437.63 -339.33 0 0 0z"/>
   <path class="fil0" d="M3365.16 1435.48l-369 -612.55c157.45,-54.11 270.69,-203.24 270.69,-379 0,-221.56 -179.55,-401.1 -401.07,-401.1l-454.55 0 0 1392.73 146.78 -0.17 0 -590.36 281.05 0 354.64 590.46 171.46 0 0 0zm-807.23 -1259.4l288.68 0c150.22,0 272.04,121.83 272.04,272.03 0,150.33 -121.82,272.14 -272.04,272.14l-288.6 0 -0.08 -544.17 0 0z"/>
   <path class="fil0" d="M2250.31 1435.48l-368.92 -612.55c157.37,-54.11 270.62,-203.24 270.62,-379 0,-221.56 -179.55,-401.1 -401.09,-401.1l-454.54 0 0 1392.73 146.87 -0.17 0 -590.36 280.95 0 354.71 590.46 171.4 0 0 0zm-807.23 -1259.4l288.77 0c150.22,0 272.05,121.83 272.05,272.03 0,150.33 -121.83,272.14 -272.05,272.14l-288.61 0 -0.17 -544.17 0 0z"/>
   <polygon class="fil1" points="4940.92,1308.32 5296.75,404.95 5702.27,1436.86 5858.05,1436.6 5296.91,8.72 4734.32,1436.86 5546.53,1436.86 5495.96,1308.34 4940.92,1308.32 "/>
   <polygon class="fil2" points="6.77,2340.29 85.14,2340.29 212.61,2538.37 340.08,2340.29 418.5,2340.29 418.5,2759.21 344.89,2759.21 344.89,2458.78 212.61,2656.27 210.24,2656.27 79.16,2459.98 79.16,2759.21 6.77,2759.21 "/>
   <path class="fil2" d="M1031.28 2592.84l-72.42 -167.57 -71.82 167.57 144.24 0zm-105.34 -255.55l68.25 0 184.32 421.92 -77.81 0 -42.48 -101.14 -198.09 0 -43.11 101.14 -75.41 0 184.32 -421.92z"/>
   <path class="fil2" d="M1657.85 2692.18c87.97,0 145.42,-59.24 145.42,-141.23l0 -1.2c0,-81.99 -57.46,-142.44 -145.42,-142.44l-82.59 0 0 284.87 82.59 0zm-156.18 -351.89l156.18 0c131.66,0 222.62,90.37 222.62,208.27l0 1.19c0,117.9 -90.97,209.46 -222.62,209.46l-156.18 0 0 -418.93z"/>
   <polygon class="fil2" points="2221.01,2340.29 2531.6,2340.29 2531.6,2406.12 2294.61,2406.12 2294.61,2515.04 2504.67,2515.04 2504.67,2580.87 2294.61,2580.87 2294.61,2693.38 2534.57,2693.38 2534.57,2759.21 2221.01,2759.21 "/>
   <path class="fil2" d="M3496.27 2527.01c74.83,0 122.69,-32.93 122.69,-83.19 0,-39.5 -31.11,-61.04 -85.56,-61.04l-117.91 0 -38.31 144.23 119.09 0zm-29.92 189.71c75.39,0 122.69,-31.72 122.69,-83.79 0,-42.48 -40.1,-64.04 -96.35,-64.04l-126.87 0 -39.51 147.83 140.04 0zm-85.56 -376.44l156.79 0c81.98,0 129.87,38.3 129.87,97.55 0,59.84 -45.49,98.15 -104.75,110.11 41.31,12.56 74.2,39.51 74.2,86.79 0,72.41 -65.8,124.48 -175.94,124.48l-192.71 0 112.54 -418.93z"/>
   <polygon class="fil2" points="4086.93,2590.45 3983.38,2340.29 4036.06,2340.29 4119.82,2551.54 4317.34,2340.29 4377.77,2340.29 4132.38,2598.22 4089.3,2759.21 4041.44,2759.21 "/>
   <polygon class="fil2" points="5168.3,2594.03 5001.93,2340.29 5088.73,2340.29 5206.01,2525.81 5324.51,2340.29 5408.91,2340.29 5242.53,2592.24 5242.53,2759.21 5168.3,2759.21 "/>
   <path class="fil2" d="M6031.26 2550.95l0 -1.2c0,-81.39 -59.25,-149.02 -142.44,-149.02 -83.19,0 -141.23,66.42 -141.23,147.82l0 1.19c0,81.39 59.24,149.02 142.44,149.02 83.18,0 141.24,-66.43 141.24,-147.82zm-360.88 0l0 -1.2c0,-117.9 90.97,-216.64 219.65,-216.64 128.67,0 218.44,97.55 218.44,215.44l0 1.19c0,117.9 -90.98,216.64 -219.65,216.64 -128.67,0 -218.44,-97.55 -218.44,-215.44z"/>
   <path class="fil2" d="M6442.38 2581.46l0 -241.17 73.6 0 0 238.19c0,77.79 40.1,119.69 105.91,119.69 65.24,0 105.35,-39.5 105.35,-116.7l0 -241.17 73.6 0 0 237.59c0,125.07 -70.59,187.92 -180.12,187.92 -108.92,0 -178.34,-62.85 -178.34,-184.34z"/>
  </g>
 </g>
</svg>
